<?xml version="1.0" encoding="utf-8"?>
<!-- Generator: Adobe Illustrator 17.1.0, SVG Export Plug-In . SVG Version: 6.00 Build 0)  -->
<!DOCTYPE svg PUBLIC "-//W3C//DTD SVG 1.1//EN" "http://www.w3.org/Graphics/SVG/1.1/DTD/svg11.dtd">
<svg version="1.1" id="Layer_1" xmlns="http://www.w3.org/2000/svg" xmlns:xlink="http://www.w3.org/1999/xlink" x="0px" y="0px"
	 viewBox="252 162 288 288" enable-background="new 252 162 288 288" xml:space="preserve">
<path fill="#A11E21" d="M396,356.2c-24.4,0-45.9-11.6-58.3-25l0,0c-2.6,3.1-4.9,12.2-4.9,12.2s-7.9,38.2-10.5,40.3
	c-2.6,2.1-2.2,0-2.2,0s-0.9-11.8-1.8-33.7c-0.6-15.7,7.9-24.2,12.7-27.7l0,0c-0.7-1.2-1.3-2.3-1.9-3.5l0,0c-3.7,2.2-8.1,6.1-8.1,6.1
	s-27.9,27.3-31.2,27.6s-1.8-1.3-1.8-1.3s5.8-10.3,17.3-28.9c6.5-10.4,15-14.1,21.3-15.3l0,0c0.5-1.6,1.7-3.3,3.6-5l0,0
	c-3.2-0.8-9.7-3.8-19.1-15.4c-10.6-5.5-30.8-28.2,5-67.5c19.8-21.7,14.2-7.1,14.2-7.1l-9.1,52.3c0,0,22-64.7,26-41.8
	c3.8,22.2,0.5,45.3-9.9,57.4l0,0c-0.9,4.7-2.5,14.1-2.5,18.7l1-0.6c11.4-7.2,33.6-13.5,60.1-13.5c26.5,0,48.7,6.4,60.1,13.5l1,0.6
	c0-4.6-1.6-14-2.5-18.7l0,0c-10.3-12.1-13.7-35.2-9.9-57.4c4-22.9,26,41.8,26,41.8l-9.1-52.3c0,0-5.6-14.6,14.2,7.1
	c35.8,39.3,15.6,62,5,67.5c-9.4,11.6-15.9,14.7-19.1,15.4l0,0c1.9,1.7,3.2,3.4,3.6,5l0,0c6.3,1.2,14.9,4.9,21.3,15.3
	c11.6,18.6,17.3,28.9,17.3,28.9s1.4,1.6-1.8,1.3S471,324.9,471,324.9s-4.4-3.9-8.1-6.1l0,0c-0.5,1.2-1.2,2.3-1.9,3.5l0,0
	c4.8,3.5,13.3,12,12.7,27.7c-0.8,21.9-1.8,33.7-1.8,33.7s0.3,2.1-2.2,0c-2.6-2.1-10.5-40.3-10.5-40.3s-2.3-9.2-4.9-12.2l0,0
	C441.9,344.5,420.4,356.2,396,356.2z M382.5,297.7c0-1.7-1.4-3.1-3.1-3.1c-1.7,0-3.1,1.4-3.1,3.1c0,1.7,1.4,3.1,3.1,3.1
	C381.2,300.8,382.5,299.4,382.5,297.7z M415.6,297.7c0-1.7-1.4-3.1-3.1-3.1c-1.7,0-3.1,1.4-3.1,3.1c0,1.7,1.4,3.1,3.1,3.1
	C414.2,300.8,415.6,299.4,415.6,297.7z M386.7,300.9c0,1.2,4.2,5,9.3,5c5.1,0,9.3-3.8,9.3-5H386.7z"/>
</svg>
