<?xml version="1.0" encoding="utf-8"?>
<!-- Generator: Adobe Illustrator 17.1.0, SVG Export Plug-In . SVG Version: 6.00 Build 0)  -->
<!DOCTYPE svg PUBLIC "-//W3C//DTD SVG 1.1//EN" "http://www.w3.org/Graphics/SVG/1.1/DTD/svg11.dtd">
<svg version="1.1" xmlns="http://www.w3.org/2000/svg" xmlns:xlink="http://www.w3.org/1999/xlink" x="0px" y="0px"
	 viewBox="0 0 72 72" enable-background="new 0 0 72 72" xml:space="preserve">
<g id="Layer_5">
	<g>
		<path fill="#2B2B2B" d="M55.3,15.4c4.4,0.1,7.8,0.2,7.4-0.2c0.1-1,0.2-1.9-2.3-3.9c-0.6-0.5-2-1.5-4.6-2.1c-4.8-1-9.4,1.4-9.4,1.4
			c-10.1,5.2-11.1,5-20.5,12c-11,8.2-3.5,14.6-0.3,19.2c4.2,5.9,7.7,11.3,6.1,16c-1.7,4.7-11.5,0.1-11.5,0.1s7.5,10.1,15.1,5.2
			c9.4-6.1,1.4-16-2.3-20.4c0,0-5.5-5-6.2-9.2c-0.8-4.6,0.8-6.5,5.7-9.7c6.2-4.1,10.4-6.4,15.7-6.3c0,0,9.9,1.7,12,1.1
			c2.1-0.6,2.6-2.1,2.6-2.1s-1.5,0.3-8.5-0.6C51.1,15.5,54.9,15.4,55.3,15.4z"/>
		<path fill="#2B2B2B" d="M15.1,53.8c0,0,4.5,2.1,9.5,2.2s-4.4-13.6-4.4-13.6c-4.7-6.3-5-10.4-5-10.4c-1.8-12.5,20.5-18.7,20.5-18.7
			c4.2-1.3,10.1-2.9,10.1-2.9s-18.7,7.7-25,16.5c0,0-3.4,4.7-0.1,10c0,0,5.6,8.3,6.8,10c4.2,5.7,5.2,12,0.3,12.3c0,0-5-0.3-9.5-2.8
			S15.1,53.8,15.1,53.8z"/>
	</g>
</g>
</svg>
