<?xml version="1.0" encoding="utf-8"?>
<!-- Generator: Adobe Illustrator 17.1.0, SVG Export Plug-In . SVG Version: 6.00 Build 0)  -->
<!DOCTYPE svg PUBLIC "-//W3C//DTD SVG 1.1//EN" "http://www.w3.org/Graphics/SVG/1.1/DTD/svg11.dtd">
<svg version="1.1" xmlns="http://www.w3.org/2000/svg" xmlns:xlink="http://www.w3.org/1999/xlink" x="0px" y="0px"
	 viewBox="0 0 72 72" enable-background="new 0 0 72 72" xml:space="preserve">
<g id="Layer_8">
	<path fill="#F47C20" d="M44,54c-3.6-1.2-6.2-4.4-6.2-4.4c-4,0.7-5.6,1.3-10.3-0.3l-1.6,8l-4.4-5.1c-1.1-1.6,0.4-4.7,0.4-4.7
		c-5.5-3-11.1-6.6-14.1-13c3.1-6.7,8.7-11,14.7-13.3c0,0,1.9-7.6,17.5-6.5l-0.5,5.1c8.8,2.3,8.5,7.8,12.3,10.9c0,0,0.9-6.7,9.5-9.1
		c8.1-2.3-1.3,12.7-6.2,13c4.9,0.3,14.3,15.2,6.2,13c-8.6-2.4-9.5-9.1-9.5-9.1c-3.5,2.8-4,7.6-10.2,10.2L44,54z"/>
</g>
</svg>
