<?xml version="1.0" encoding="utf-8"?>
<!-- Generator: Adobe Illustrator 18.0.0, SVG Export Plug-In . SVG Version: 6.00 Build 0)  -->
<!DOCTYPE svg PUBLIC "-//W3C//DTD SVG 1.1//EN" "http://www.w3.org/Graphics/SVG/1.1/DTD/svg11.dtd">
<svg version="1.1" id="Layer_1" xmlns="http://www.w3.org/2000/svg" xmlns:xlink="http://www.w3.org/1999/xlink" x="0px" y="0px"
	 viewBox="0 90 612 420" enable-background="new 0 90 612 420" xml:space="preserve">
<path fill="#ED8222" d="M136,293.7c5.7-2.1-13.8,10-13.8,10c19.6,34.4,51.4,54.8,82.9,71.8c0,0-9.1,19.1-2.3,28.9l27.4,31.7l10-49.7
	c29.5,9.6,39.5,5.9,64.2,1.7c0,0,15.9,19.8,38.5,27.2l-15.5-33.8c38.2-15.9,41.6-45.9,62.9-63.1c0,0,7,61.8,75.2,81
	c64.4,18.1-10.6-101.2-49.7-103.3c39.1-2.1,114.1-121.3,49.7-103.3c-68.2,19.1-75.2,77.8-75.2,77.8c-23.6-18.9-21.7-53.3-76.1-67.4
	l3.4-31.4c-96.7-6.8-108.8,40.4-108.8,40.4c-34.6,13.4-67.2,37.2-87.1,73.9C121.9,286.4,129.8,295.8,136,293.7z M213.7,318.3
	c-4,0-7.4-3.2-7.4-7.4c0-4,3.2-7.4,7.4-7.4c4,0,7.2,3.2,7.2,7.4S217.8,318.3,213.7,318.3z"/>
</svg>
