<?xml version="1.0" encoding="utf-8"?>
<!-- Generator: Adobe Illustrator 17.1.0, SVG Export Plug-In . SVG Version: 6.00 Build 0)  -->
<!DOCTYPE svg PUBLIC "-//W3C//DTD SVG 1.1//EN" "http://www.w3.org/Graphics/SVG/1.1/DTD/svg11.dtd">
<svg version="1.1" id="Layer_1" xmlns="http://www.w3.org/2000/svg" xmlns:xlink="http://www.w3.org/1999/xlink" x="0px" y="0px"
	 viewBox="252 154 288 288" enable-background="new 252 154 288 288" xml:space="preserve">
<g>
	<path fill="#F962B9" d="M396,199.2c-44.3,0-80.2,45.7-80.2,77.7s35.9,35.3,80.2,35.3c44.3,0,80.2-3.3,80.2-35.3
		S440.3,199.2,396,199.2z M369.3,266.3c-2.7,0-4.9-2.2-4.9-4.9c0-2.7,2.2-4.9,4.9-4.9c2.7,0,4.9,2.2,4.9,4.9
		C374.2,264.1,372,266.3,369.3,266.3z M396,274.6c-8.3,0-15-6.1-15-8.1H411C411,268.6,404.3,274.6,396,274.6z M422.7,266.3
		c-2.7,0-4.9-2.2-4.9-4.9c0-2.7,2.2-4.9,4.9-4.9s4.9,2.2,4.9,4.9C427.6,264.1,425.4,266.3,422.7,266.3z"/>
	<path fill="#F962B9" d="M341.7,383.7c5.3-9.7,14.3-18.9-1.1-35.1c-20.5-21.5-1.4-45.5-1.4-45.5L341.7,383.7z"/>
	<path fill="#F962B9" d="M368.2,307.8c0,0,11,20.9-1.5,25.4c-20.3,7.2-5.5,15-3.9,21.6l7.7,7.8c0,0,7.6,20.3-3.1,21.1"/>
	<path fill="#F962B9" d="M450.3,383.7c-5.3-9.7-14.3-18.9,1.1-35.1c20.5-21.5,1.4-45.5,1.4-45.5L450.3,383.7z"/>
	<path fill="#F962B9" d="M423.8,307.8c0,0-11,20.9,1.5,25.4c20.3,7.2,5.5,15,3.9,21.6l-7.7,7.8c0,0-7.6,20.3,3.1,21.1"/>
	<path fill="#F962B9" d="M396.8,420.1c-7.2-6.7-4.7-33.3,12.9-41.8c14-6.8-10.5-8.5-18-20.5s3.3-10.4,11.8-21.3
		c8.5-10.9-10.1-27.8-10.1-27.8L396.8,420.1z"/>
</g>
</svg>
