<?xml version="1.0" encoding="utf-8"?>
<!-- Generator: Adobe Illustrator 17.1.0, SVG Export Plug-In . SVG Version: 6.00 Build 0)  -->
<!DOCTYPE svg PUBLIC "-//W3C//DTD SVG 1.1//EN" "http://www.w3.org/Graphics/SVG/1.1/DTD/svg11.dtd">
<svg version="1.1" id="Layer_1" xmlns="http://www.w3.org/2000/svg" xmlns:xlink="http://www.w3.org/1999/xlink" x="0px" y="0px"
	 viewBox="252 162 288 288" enable-background="new 252 162 288 288" xml:space="preserve">
<path fill="#583392" d="M450.3,356.3c-0.7,5.1-2.5,9.6-2.5,9.6c-7.4,16-24.8,13.5-24.8,13.5c-13.3,1-20.7-11.6-20.7-11.6
	c-4.5-7.3-12.7-27.4-12.7-27.4l0,0c-33.6,18.9-21.1,26.7-21.1,26.7s24.1,18.9,0.7,23.6c-6,1.2-11.5,0-14.2-2.9
	c-2.7-2.9,5.9-2.8,5.9-2.8c14-0.5-5.7-10.2-5.7-10.2c-15-6.6-7.6-19.1-6.4-21.4c2.4-4.4,9.3-14.7,9.3-14.7
	c-13,12.5-28.7,10.8-28.7,10.8s-22.6,0.2-29.5-21.4c-9.9-31.2,8.8-30.9,10.5-30c1.6,1,0,5.3-2.3,5.6c-6.2,0.8-6.1,12.8,0,20.7
	c8,10.3,23.7,7.4,23.7,7.4c31.4-6.9,16.4-21,16.4-21c-8.6-8.7-12.7-20.9-13.7-36.3c-1.7-25.8,12.1-46.7,41.9-52.6
	c32.1-6.3,67.4,17.6,67.2,52.4c-0.1,15.4-2.7,25.5-9.3,37.1c0,0-4.8,12.5,9.6,12.3c14.4-0.2,42.6-14.5,47.8-1.4
	c11.4,28.2-15.2,29.5-15.2,29.5c-11.5-0.1-11.7-7.9-11.7-7.9s5.6-1.3,9.5-2.2c8.7-2,4.3-8.2,4.3-8.2s-6.4-8.9-22.6,2.4
	c0,0-14.9,10.2-34.8,0.5c0,0-4.6,0.2-6.8,6.2c0,0-5,21.8,6.5,26c0,0,12.1,4.7,18.2-3.9S450.9,351.8,450.3,356.3z M387.9,312.6
	c0-1.9-1.5-3.4-3.4-3.4s-3.4,1.5-3.4,3.4c0,1.9,1.5,3.4,3.4,3.4S387.9,314.5,387.9,312.6z M421.1,309.2c0-1.7-1.4-3.1-3.1-3.1
	s-3.1,1.4-3.1,3.1s1.4,3.1,3.1,3.1S421.1,310.9,421.1,309.2z"/>
</svg>
