<?xml version="1.0" encoding="utf-8"?>
<!-- Generator: Adobe Illustrator 17.1.0, SVG Export Plug-In . SVG Version: 6.00 Build 0)  -->
<!DOCTYPE svg PUBLIC "-//W3C//DTD SVG 1.1//EN" "http://www.w3.org/Graphics/SVG/1.1/DTD/svg11.dtd">
<svg version="1.1" id="Layer_1" xmlns="http://www.w3.org/2000/svg" xmlns:xlink="http://www.w3.org/1999/xlink" x="0px" y="0px"
	 viewBox="252 150 288 288" enable-background="new 252 150 288 288" xml:space="preserve">
<path fill="#64F0E9" d="M378.2,241.8c-12.6-6.5-44.8,6.3-46.3,1.7c-1.5-4.6-0.7-7-0.7-7s31.1-1.5,36.6-12.6c4.5-9,6.1-22.2,32.7-26
	c0,0,39-5.2,43.2-3.4v2.1l-12.3,7.2c45.9,37.9-38.1-30.4,15.3,102.1l0,0c-0.9,1.6-36.2-5.6-18.4,75.3c7.8,35.7-34,36.5-34,36.5
	c-39.3-2.2-32.6-40.4-32.6-40.4c4-17.3,17.7-17.7,26.6-7.8c5.1,5.6-4.8,6.8-7.2,4c-2.4-2.8-1.6-6.2-8.4-3.4s-8.5,32.3,17.2,29.7
	c19.6-2,21.4-18.3,21.4-18.3c8.5-80-22.3-27.2-22.3-27.2c-32.9-36.8-37.4-83.3-3.2-99.5c6.7-3.2,17.6-9.1,13.9-8.4
	C395.1,247.5,378.2,241.8,378.2,241.8z M393.5,232.5c0-1.7-1.4-3.2-3.2-3.2s-3.2,1.4-3.2,3.2s1.4,3.2,3.2,3.2
	S393.5,234.2,393.5,232.5z"/>
</svg>
