<?xml version="1.0" encoding="utf-8"?>
<!-- Generator: Adobe Illustrator 18.0.0, SVG Export Plug-In . SVG Version: 6.00 Build 0)  -->
<!DOCTYPE svg PUBLIC "-//W3C//DTD SVG 1.1//EN" "http://www.w3.org/Graphics/SVG/1.1/DTD/svg11.dtd">
<svg version="1.1" id="Layer_1" xmlns="http://www.w3.org/2000/svg" xmlns:xlink="http://www.w3.org/1999/xlink" x="0px" y="0px"
	 viewBox="0 90 612 400" enable-background="new 0 90 612 400" xml:space="preserve">
<path fill="#049600" d="M150.7,282.2c0,0-74.6-31.9-85-40.2s9.3-55.7,62.3-55.7c69.5,0,52.5,68.2,52.5,68.2s-0.6,6.6,14.9-12.3l0,0
	c15.9-19.1,79.1-61,165.3-55.9c80.8,4.7,139.8,59.1,147.1,73.7c0,0-1.1-1.7,0,0c9.6,15.5,20.6,22.5,37.2,24c7.4,0.6,3.2,5.3-0.6,8.9
	c-17,15.7-41.7,2.1-51.2,11.3c-16.4,15.7-16.4,15.7-16.4,15.7c-14,12.3-11.3,25.3,57.6,19.1c19.3-1.7,8.1,17-19.1,23.6
	c-72.2,18.1-107.1-0.6-107.1-0.6c-18.7-10.4-6.4-18.3-1.7-26.3l1.9-3.4c-18.7,3-39.1,4-60.3,3c-13.8-0.8-21-1.3-33.8-3.8l-6.4-1.3
	c0,0,1.1,8.7-25.9,13.6c-8.7,1.5-19.6,1.3-17.6,8.1c2.1,6.8,94.3,35.5,84.4,41.4c-10.4,6.2-16.6,15.1-63.1,8.9
	c-46.5-6.2-102.2-46.5-103.7-63.1c-1.5-16.6,44.2-35.1,44.2-35.1l-12.1-5.7C195.1,300.9,150.7,282.2,150.7,282.2z M138.4,234
	c0-4.2-3.4-7.7-7.7-7.7s-7.7,3.4-7.7,7.7s3.4,7.7,7.7,7.7S138.4,238.2,138.4,234z"/>
</svg>
