<?xml version="1.0" encoding="utf-8"?>
<!-- Generator: Adobe Illustrator 17.1.0, SVG Export Plug-In . SVG Version: 6.00 Build 0)  -->
<!DOCTYPE svg PUBLIC "-//W3C//DTD SVG 1.1//EN" "http://www.w3.org/Graphics/SVG/1.1/DTD/svg11.dtd">
<svg version="1.1" xmlns="http://www.w3.org/2000/svg" xmlns:xlink="http://www.w3.org/1999/xlink" x="0px" y="0px"
	 viewBox="0 0 72 72" enable-background="new 0 0 72 72" xml:space="preserve">
<g id="Layer_4">
	<g>
		<path fill="#F37165" d="M18.9,35.5c2.7,0.1,22.8,1.1,24.8-5.9c0,0,2.7-6.5-3.5-11.2c-5.1-3.8-23,15.7-23,15.7S12,37.2,5.5,37.5
			c0,0-2.5,0.2-0.7,0.5c1.6,0.2,4.2-0.1,9-1.3C21.7,34.9,18.9,35.5,18.9,35.5L18.9,35.5z"/>
		<path fill="#F37165" d="M53.7,30.2c-3.9,6-12.2,3.4-12.2,3.4s1.6-1,2.3-2c2.2-3.7,2.4-8.8-2.9-14.1c0,0,6.7-2.8,12.8,1.1
			C53.7,18.6,58.9,22.2,53.7,30.2z"/>
		<path fill="#F37165" d="M62.5,24.6c1.7,2.5,2.6,6.2-1,9.5c-3.6,3.3-10.8,0-10.8,0s8.4-4.6,5.7-13.7C56.4,20.4,61.4,23.1,62.5,24.6
			z"/>
		<path fill="#F37165" d="M65,29"/>
		<path fill="#F37165" d="M65,29c0,0,2.8,2.7,2.8,5.1c0.1,6-5,6-5,6c-2.7,0.2-6.4-3.5-6.4-3.5C55.6,37,64.3,37.6,65,29"/>
		<path fill="#F37165" d="M65.7,43.6c-2.5,1.5-4.6,0-5.4-1.1c-0.8-1.1,0-2.4,0-2.4s4.3,2.7,7.6-2.2C67.8,38,67.9,42.3,65.7,43.6z"/>
		<path fill="#F37165" d="M60.7,43.9c0,0-16.2,6.1-18,10.9c-2.1,5.6-0.1,5.2,1.8,4.7c5.7-1.5,22.4-14.4,19-14.4
			C62.3,45.1,60.7,43.9,60.7,43.9z"/>
	</g>
</g>
</svg>
