<?xml version="1.0" encoding="utf-8"?>
<!-- Generator: Adobe Illustrator 17.1.0, SVG Export Plug-In . SVG Version: 6.00 Build 0)  -->
<!DOCTYPE svg PUBLIC "-//W3C//DTD SVG 1.1//EN" "http://www.w3.org/Graphics/SVG/1.1/DTD/svg11.dtd">
<svg version="1.1" xmlns="http://www.w3.org/2000/svg" xmlns:xlink="http://www.w3.org/1999/xlink" x="0px" y="0px"
	 viewBox="0 0 72 72" enable-background="new 0 0 72 72" xml:space="preserve">
<g id="Layer_1" display="none">
	<g display="inline">
		<path fill="#2C5C2D" d="M20.4,36.5c-0.4,6.2,8.8,11.8,20.4,12.5s21.4-3.8,21.7-10l0,0c0,0.4-8.3-20.2-19.9-20.8
			S20.4,36.9,20.4,36.5"/>
		<path fill="#2C5C2D" d="M23.7,44.2C18.5,50,16.2,43,16.2,43s-1.7-6.2-4.9-8.9c0,0-6-1.7-7.4-2.8s-0.6-11.3,8.8-10.5
			s6.2,12.7,6.2,12.7S19.5,42.4,23.7,44.2"/>
		<path fill="#2C5C2D" d="M60,45.2c0,0,2.3-2,2.6-4.2c0.3-2.2,2.6,3.6,4.9,2.6c2.3-1,0.6,0.9-0.1,1.2C64.2,46.3,60,45.2,60,45.2z"/>
		<path fill="#2C5C2D" d="M35.3,55.4c-5,2.8-11-0.3-11-0.3s-4.5-1.8,1.2-9.6c0,0,4.5,3,10,3.9C35.5,49.4,38.4,53.6,35.3,55.4z"/>
		<path fill="#2C5C2D" d="M50.1,55.4c5,2.8,11-0.3,11-0.3s4.5-1.8-1.2-9.6c0,0-4.5,3-10,3.9C49.9,49.4,47,53.6,50.1,55.4z"/>
	</g>
</g>
<g id="Layer_2" display="none">
	<g display="inline">
		<path fill="#A21D21" d="M16.5,12.8c0,0,1.5-3.9-3.8,1.9c-10.5,11.6-2.7,17.7-0.5,18.1c7.3,1.5,10.3-8.2,8.7-17.3
			c-1-6-6.9,11-6.9,11L16.5,12.8z"/>
		<path fill="#A21D21" d="M54.4,40.4c0-2.5-8.2-6.3-18.4-6.3s-18.4,3.8-18.4,6.3c0,5,8.2,12.6,18.4,12.6S54.4,45.3,54.4,40.4z"/>
		<path fill="#A21D21" d="M18.2,37.6c-0.1-1.5,0.8-5.9,0.8-5.9c-3.8,3.6-7.5,2-7.5,2c3.8,5,6,4.6,6,4.6L18.2,37.6z"/>
		<path fill="#A21D21" d="M16.3,42.8c0.6-0.2,0.8-2.9,0.8-2.9s-4.8-0.8-7.9,4.2s-4.6,7.6-4.6,7.6S4.3,52.1,5.2,52
			c0.9-0.1,8.2-7.3,8.2-7.3S15.3,43.1,16.3,42.8z"/>
		<path fill="#A21D21" d="M17.8,46.4c0.4-0.5-0.9-2.9-0.9-2.9s-4.4,2.1-4.2,7.9c0.2,5.8,0.5,8.9,0.5,8.9s-0.1,0.6,0.6,0
			c0.7-0.6,2.8-10.7,2.8-10.7S17.1,47.2,17.8,46.4z"/>
		<path fill="#A21D21" d="M55.5,12.8c0,0-1.5-3.9,3.8,1.9c10.5,11.6,2.7,17.7,0.5,18.1c-7.3,1.5-10.3-8.2-8.7-17.3
			c1-6,6.9,11,6.9,11L55.5,12.8z"/>
		<path fill="#A21D21" d="M53.8,37.6c0.1-1.5-0.8-5.9-0.8-5.9c3.8,3.6,7.5,2,7.5,2c-3.8,5-6,4.6-6,4.6L53.8,37.6z"/>
		<path fill="#A21D21" d="M55.7,42.8c-0.6-0.2-0.8-2.9-0.8-2.9s4.8-0.8,7.9,4.2c3.1,4.9,4.6,7.6,4.6,7.6s0.4,0.4-0.5,0.3
			c-0.9-0.1-8.2-7.3-8.2-7.3S56.7,43.1,55.7,42.8z"/>
		<path fill="#A21D21" d="M54.2,46.4c-0.4-0.5,0.9-2.9,0.9-2.9s4.4,2.1,4.2,7.9c-0.2,5.8-0.5,8.9-0.5,8.9s0.1,0.6-0.6,0
			c-0.7-0.6-2.8-10.7-2.8-10.7S54.9,47.2,54.2,46.4z"/>
	</g>
</g>
<g id="Layer_3" display="none">
	<g display="inline">
		<path fill="#BB69AA" d="M43.4,24.4c0.6-6-2.7-11.5-7.4-11.5s-8,5.6-7.4,11.5l5.4,33.3c0.3,1.8,3.6,1.8,3.9,0L43.4,24.4z"/>
		<path fill="#BB69AA" d="M27.7,27.6c-1.4-4.8-5.7-8.3-9.3-7.2c-3.5,1.1-4.5,5.9-2.4,10.3l13.9,24.8c0.9,1.6,3.8,3.4,3.4,1.8
			L27.7,27.6z"/>
		<path fill="#BB69AA" d="M18.3,37.1c-1.7-2.5-4.8-3.8-6.7-2.8c-1.8,1-1.6,3.8,0.2,6.1l14.2,14.9c1.1,1.1,3.1,0.4,2.3-0.8L18.3,37.1
			z"/>
		<path fill="#BB69AA" d="M14.6,44.6c-1.3-1.1-3.1-1.5-3.9-0.7c-0.8,0.7-0.3,2.2,0.9,3.2l10.9,7.7c0.9,0.7,2,0,1.3-0.8L14.6,44.6z"
			/>
		<path fill="#BB69AA" d="M44.3,27.6c1.4-4.8,5.7-8.3,9.3-7.2c3.5,1.1,4.5,5.9,2.4,10.3L42.2,55.5c-0.9,1.6-3.8,3.4-3.4,1.8
			L44.3,27.6z"/>
		<path fill="#BB69AA" d="M53.7,37.1c1.7-2.5,4.8-3.8,6.7-2.8c1.8,1,1.6,3.8-0.2,6.1L45.9,55.4c-1.1,1.1-3.1,0.4-2.3-0.8L53.7,37.1z
			"/>
		<path fill="#BB69AA" d="M57.4,44.6c1.3-1.1,3.1-1.5,3.9-0.7c0.8,0.7,0.3,2.2-0.9,3.2l-10.9,7.7c-0.9,0.7-2,0-1.3-0.8L57.4,44.6z"
			/>
	</g>
</g>
<g id="Layer_4">
	<g>
		<path fill="#F37165" d="M18.9,35.5c2.7,0.1,22.8,1.1,24.8-5.9c0,0,2.7-6.5-3.5-11.2c-5.1-3.8-23,15.7-23,15.7S12,37.2,5.5,37.5
			c0,0-2.5,0.2-0.7,0.5c1.6,0.2,4.2-0.1,9-1.3C21.7,34.9,18.9,35.5,18.9,35.5L18.9,35.5z"/>
		<path fill="#F37165" d="M53.7,30.2c-3.9,6-12.2,3.4-12.2,3.4s1.6-1,2.3-2c2.2-3.7,2.4-8.8-2.9-14.1c0,0,6.7-2.8,12.8,1.1
			C53.7,18.6,58.9,22.2,53.7,30.2z"/>
		<path fill="#F37165" d="M62.5,24.6c1.7,2.5,2.6,6.2-1,9.5c-3.6,3.3-10.8,0-10.8,0s8.4-4.6,5.7-13.7C56.4,20.4,61.4,23.1,62.5,24.6
			z"/>
		<path fill="#F37165" d="M65,29"/>
		<path fill="#F37165" d="M65,29c0,0,2.8,2.7,2.8,5.1c0.1,6-5,6-5,6c-2.7,0.2-6.4-3.5-6.4-3.5C55.6,37,64.3,37.6,65,29"/>
		<path fill="#F37165" d="M65.7,43.6c-2.5,1.5-4.6,0-5.4-1.1c-0.8-1.1,0-2.4,0-2.4s4.3,2.7,7.6-2.2C67.8,38,67.9,42.3,65.7,43.6z"/>
		<path fill="#F37165" d="M60.7,43.9c0,0-16.2,6.1-18,10.9c-2.1,5.6-0.1,5.2,1.8,4.7c5.7-1.5,22.4-14.4,19-14.4
			C62.3,45.1,60.7,43.9,60.7,43.9z"/>
	</g>
</g>
<g id="Layer_5" display="none">
	<g display="inline">
		<path fill="#2B2B2B" d="M55.3,15.4c4.4,0.1,7.8,0.2,7.4-0.2c0.1-1,0.2-1.9-2.3-3.9c-0.6-0.5-2-1.5-4.6-2.1c-4.8-1-9.4,1.4-9.4,1.4
			c-10.1,5.2-11.1,5-20.5,12c-11,8.2-3.5,14.6-0.3,19.2c4.2,5.9,7.7,11.3,6.1,16c-1.7,4.7-11.5,0.1-11.5,0.1s7.5,10.1,15.1,5.2
			c9.4-6.1,1.4-16-2.3-20.4c0,0-5.5-5-6.2-9.2c-0.8-4.6,0.8-6.5,5.7-9.7c6.2-4.1,10.4-6.4,15.7-6.3c0,0,9.9,1.7,12,1.1
			c2.1-0.6,2.6-2.1,2.6-2.1s-1.5,0.3-8.5-0.6C51.1,15.5,54.9,15.4,55.3,15.4z"/>
		<path fill="#2B2B2B" d="M15.1,53.8c0,0,4.5,2.1,9.5,2.2s-4.4-13.6-4.4-13.6c-4.7-6.3-5-10.4-5-10.4c-1.8-12.5,20.5-18.7,20.5-18.7
			c4.2-1.3,10.1-2.9,10.1-2.9s-18.7,7.7-25,16.5c0,0-3.4,4.7-0.1,10c0,0,5.6,8.3,6.8,10c4.2,5.7,5.2,12,0.3,12.3c0,0-5-0.3-9.5-2.8
			S15.1,53.8,15.1,53.8z"/>
	</g>
</g>
<g id="Layer_6" display="none">
	<path display="inline" fill="#D29C2D" d="M31.8,29.3c-0.2-2.8-0.3-9,2.2-17.7c0.5-1.7,2.9-1.5,3.1,0.3c0.8,7.8,3.5,14.9,4.7,17.7
		c0.3,0.8,1.2,1.1,2,0.9c3-1.1,10.4-3.9,16.1-6.6c1.5-0.7,2.9,1.1,1.9,2.4c-3.7,4.5-9,10.2-14.6,13.7c-0.8,0.5-1,1.5-0.5,2.3
		c3.4,4.6,8.1,11.3,11.6,16.3c1,1.4-0.8,3.2-2.2,2.2c-8.6-6.1-15.6-11.3-18-13.1c-0.5-0.4-1.2-0.4-1.8-0.1
		c-5.9,3.7-12.7,9.4-17.4,13.7c-1.3,1.2-3.3-0.4-2.4-2c3.5-5.9,8.6-13.1,11-16.5c0.6-0.8,0.3-2-0.7-2.3c-3.9-1.4-10.9-6-16.1-9.6
		c-1.4-1-0.4-3.2,1.2-2.8c5.9,1.4,13.6,3,18.4,3C31.1,31,31.8,30.2,31.8,29.3z"/>
</g>
<g id="Layer_7" display="none">
	<path display="inline" fill="#0DAEBA" d="M56.4,23.4c-0.8,8.3-9.5,8.5-20.4,8.5s-19.6-0.1-20.4-8.5c-0.8-9,8.3-16.8,20.4-16.8
		S57.2,14.4,56.4,23.4z"/>
	<path display="inline" fill="#0DAEBA" d="M21.2,31.5c0,0-2,9.8,1.8,12.4s10.1,9.2,5.8,11.7c0,0-10.7,7.6-9.8,8.2
		c0.8,0.7,5.5-2.8,7.9-4.6c5.7-4.1,6.3-5,4.7-8.3c-2.4-4.8-4.5-6-6.7-9.2s0.9-7.1,0.9-8.7C25.7,31.2,21.3,30.8,21.2,31.5z"/>
	<path display="inline" fill="#0DAEBA" d="M28.4,33c0,0-1.2,9.9,2.7,12.2s10.8,8.4,6.7,11.2c0,0-10.1,8.3-9.2,9s5.2-3.2,7.6-5.2
		c5.4-4.6,5.9-5.5,4-8.7c-2.7-4.6-5-5.7-7.4-8.7c-2.5-3,0.3-7.1,0.2-8.8C32.9,32.4,28.5,32.3,28.4,33z"/>
	<path display="inline" fill="#0DAEBA" d="M50.8,31.5c0,0,2,9.8-1.8,12.4c-3.8,2.6-10.1,9.2-5.8,11.7c0,0,10.7,7.6,9.8,8.2
		c-0.8,0.7-5.5-2.8-7.9-4.6c-5.7-4.1-6.3-5-4.7-8.3c2.4-4.8,4.5-6,6.7-9.2c2.2-3.2-0.9-7.1-0.9-8.7C46.3,31.2,50.7,30.8,50.8,31.5z"
		/>
	<path display="inline" fill="#0DAEBA" d="M43.6,33c0,0,1.2,9.9-2.7,12.2S30,53.6,34.2,56.4c0,0,10.1,8.3,9.2,9s-5.2-3.2-7.6-5.2
		c-5.4-4.6-5.9-5.5-4-8.7c2.7-4.6,5-5.7,7.4-8.7c2.5-3-0.3-7.1-0.2-8.8C39.1,32.4,43.5,32.3,43.6,33z"/>
</g>
<g id="Layer_8" display="none">
	<path display="inline" fill="#F47C20" d="M44,54c-3.6-1.2-6.2-4.4-6.2-4.4c-4,0.7-5.6,1.3-10.3-0.3l-1.6,8l-4.4-5.1
		c-1.1-1.6,0.4-4.7,0.4-4.7c-5.5-3-11.1-6.6-14.1-13c3.1-6.7,8.7-11,14.7-13.3c0,0,1.9-7.6,17.5-6.5l-0.5,5.1
		c8.8,2.3,8.5,7.8,12.3,10.9c0,0,0.9-6.7,9.5-9.1c8.1-2.3-1.3,12.7-6.2,13c4.9,0.3,14.3,15.2,6.2,13c-8.6-2.4-9.5-9.1-9.5-9.1
		c-3.5,2.8-4,7.6-10.2,10.2L44,54z"/>
</g>
<g id="Layer_9" display="none">
	<path display="inline" fill="#6D7C76" d="M16.5,23.4c0.9,2.3,1,4.6,0.4,6.8c-0.7,2.1-2.1,4-4.1,5.4c-3.1-2.7-5-5.6-4.3-7.9
		C9.2,25.3,12.4,24,16.5,23.4"/>
	<path display="inline" fill="#6D7C76" d="M25.9,32.9c1.6-5.2,1.9-12.6-2.3-14.4C19.9,16.9,17,21,17,21c1.6,2.6,2,6.1,1,9.5
		c-1,3.4-3.4,6.1-6.1,7.3c0,0,0.1,5.1,4.1,5.8C20.5,44.4,24.3,38.1,25.9,32.9z"/>
	<path display="inline" fill="#6D7C76" d="M37.8,36.6c2-6.5,2.3-15.1-2.9-18.6c-4.4-3-9.2-1-9.2-1c3,4.3,3.3,10.5,1.5,16.4
		c-1.8,6-5.4,10.9-10.3,12.9c0,0,2.9,4.3,8.2,4.2C31.3,50.4,35.9,43,37.8,36.6z"/>
	<path display="inline" fill="#6D7C76" d="M39.3,37c-1.7,5.5-5.7,11.3-9.4,13.6l2,0c11.4,0.1,17.8-4.7,19.4-10s-1-12.9-10.6-19.1
		L39,20.4C40.9,24.4,41,31.5,39.3,37z"/>
	<path display="inline" fill="#6D7C76" d="M54.6,52.7c0,0,10.5-5.7,7.9-31c-0.4-3.9-2-0.2-2-0.2c-3.7,6.9-7.3,15.7-7.3,15.7
		c-0.7,8.1-4.9,12.2-12.3,13.8c-7,1.6-17.1,0.1-17.1,0.1s-10.6,1.3-13.1,1.9c-6.8,1.7-1.5,2.2-1.5,2.2s2.8,0.4,15,0.6
		C38.4,56,50.4,56.5,54.6,52.7z"/>
</g>
</svg>
