<?xml version="1.0" encoding="utf-8"?>
<!-- Generator: Adobe Illustrator 17.1.0, SVG Export Plug-In . SVG Version: 6.00 Build 0)  -->
<!DOCTYPE svg PUBLIC "-//W3C//DTD SVG 1.1//EN" "http://www.w3.org/Graphics/SVG/1.1/DTD/svg11.dtd">
<svg version="1.1" xmlns="http://www.w3.org/2000/svg" xmlns:xlink="http://www.w3.org/1999/xlink" x="0px" y="0px"
	 viewBox="0 0 72 72" enable-background="new 0 0 72 72" xml:space="preserve">
<g id="Layer_9">
	<path fill="#6D7C76" d="M16.5,23.4c0.9,2.3,1,4.6,0.4,6.8c-0.7,2.1-2.1,4-4.1,5.4c-3.1-2.7-5-5.6-4.3-7.9
		C9.2,25.3,12.4,24,16.5,23.4"/>
	<path fill="#6D7C76" d="M25.9,32.9c1.6-5.2,1.9-12.6-2.3-14.4C19.9,16.9,17,21,17,21c1.6,2.6,2,6.1,1,9.5c-1,3.4-3.4,6.1-6.1,7.3
		c0,0,0.1,5.1,4.1,5.8C20.5,44.4,24.3,38.1,25.9,32.9z"/>
	<path fill="#6D7C76" d="M37.8,36.6c2-6.5,2.3-15.1-2.9-18.6c-4.4-3-9.2-1-9.2-1c3,4.3,3.3,10.5,1.5,16.4c-1.8,6-5.4,10.9-10.3,12.9
		c0,0,2.9,4.3,8.2,4.2C31.3,50.4,35.9,43,37.8,36.6z"/>
	<path fill="#6D7C76" d="M39.3,37c-1.7,5.5-5.7,11.3-9.4,13.6l2,0c11.4,0.1,17.8-4.7,19.4-10s-1-12.9-10.6-19.1L39,20.4
		C40.9,24.4,41,31.5,39.3,37z"/>
	<path fill="#6D7C76" d="M54.6,52.7c0,0,10.5-5.7,7.9-31c-0.4-3.9-2-0.2-2-0.2c-3.7,6.9-7.3,15.7-7.3,15.7
		c-0.7,8.1-4.9,12.2-12.3,13.8c-7,1.6-17.1,0.1-17.1,0.1s-10.6,1.3-13.1,1.9c-6.8,1.7-1.5,2.2-1.5,2.2s2.8,0.4,15,0.6
		C38.4,56,50.4,56.5,54.6,52.7z"/>
</g>
</svg>
