<?xml version="1.0" encoding="utf-8"?>
<!-- Generator: Adobe Illustrator 17.1.0, SVG Export Plug-In . SVG Version: 6.00 Build 0)  -->
<!DOCTYPE svg PUBLIC "-//W3C//DTD SVG 1.1//EN" "http://www.w3.org/Graphics/SVG/1.1/DTD/svg11.dtd">
<svg version="1.1" id="Layer_1" xmlns="http://www.w3.org/2000/svg" xmlns:xlink="http://www.w3.org/1999/xlink" x="0px" y="0px"
	 viewBox="252 162 288 288" enable-background="new 252 162 288 288" xml:space="preserve">
<path fill="#F3D60D" d="M432.4,318.8c18.5-11.6,35.9-30.3,47.9-45c3.5-4.2-1.2-10.2-6.2-7.9c-18.7,9-42.9,18.1-52.7,21.7
	c-2.6,0.9-5.4-0.3-6.4-2.8c-4-9.3-12.8-32.4-15.4-58.1c-0.6-5.6-8.5-6.3-10-0.9c-8.2,28.7-8.1,49-7.3,58.1c0.2,3-2.1,5.6-5.1,5.5
	c-15.6-0.3-40.9-5.5-60.2-10c-5.5-1.3-8.7,6-4.1,9.2c17.2,11.9,40.1,26.8,52.8,31.6c3.1,1.2,4.2,5,2.3,7.7
	c-7.8,11-24.3,34.8-35.9,54.1c-3,5,3.5,10.3,7.8,6.4c15.7-14,38-32.8,57.2-44.8c1.8-1.1,4.1-1,5.8,0.3c7.7,5.8,30.6,22.9,58.9,42.9
	c4.7,3.3,10.5-2.4,7.2-7.1c-11.4-16.5-26.6-38.3-37.9-53.4C429,323.8,429.8,320.5,432.4,318.8z M380.3,309.7c-1.7,0-3.2-1.4-3.2-3.2
	c0-1.7,1.4-3.2,3.2-3.2s3.2,1.4,3.2,3.2C383.5,308.3,382.1,309.7,380.3,309.7z M397.4,315c-5.3,0-9.6-3.9-9.6-5.2H407
	C407,311.1,402.7,315,397.4,315z M414.5,309.7c-1.7,0-3.2-1.4-3.2-3.2c0-1.7,1.4-3.2,3.2-3.2c1.7,0,3.2,1.4,3.2,3.2
	C417.7,308.3,416.2,309.7,414.5,309.7z"/>
</svg>
