<?xml version="1.0" encoding="utf-8"?>
<!-- Generator: Adobe Illustrator 17.1.0, SVG Export Plug-In . SVG Version: 6.00 Build 0)  -->
<!DOCTYPE svg PUBLIC "-//W3C//DTD SVG 1.1//EN" "http://www.w3.org/Graphics/SVG/1.1/DTD/svg11.dtd">
<svg version="1.1" xmlns="http://www.w3.org/2000/svg" xmlns:xlink="http://www.w3.org/1999/xlink" x="0px" y="0px"
	 viewBox="0 0 72 72" enable-background="new 0 0 72 72" xml:space="preserve">
<g id="Layer_6">
	<path fill="#D29C2D" d="M31.8,29.3c-0.2-2.8-0.3-9,2.2-17.7c0.5-1.7,2.9-1.5,3.1,0.3c0.8,7.8,3.5,14.9,4.7,17.7
		c0.3,0.8,1.2,1.1,2,0.9c3-1.1,10.4-3.9,16.1-6.6c1.5-0.7,2.9,1.1,1.9,2.4c-3.7,4.5-9,10.2-14.6,13.7c-0.8,0.5-1,1.5-0.5,2.3
		c3.4,4.6,8.1,11.3,11.6,16.3c1,1.4-0.8,3.2-2.2,2.2c-8.6-6.1-15.6-11.3-18-13.1c-0.5-0.4-1.2-0.4-1.8-0.1
		c-5.9,3.7-12.7,9.4-17.4,13.7c-1.3,1.2-3.3-0.4-2.4-2c3.5-5.9,8.6-13.1,11-16.5c0.6-0.8,0.3-2-0.7-2.3c-3.9-1.4-10.9-6-16.1-9.6
		c-1.4-1-0.4-3.2,1.2-2.8c5.9,1.4,13.6,3,18.4,3C31.1,31,31.8,30.2,31.8,29.3z"/>
</g>
</svg>
