<?xml version="1.0" encoding="utf-8"?>
<!-- Generator: Adobe Illustrator 17.1.0, SVG Export Plug-In . SVG Version: 6.00 Build 0)  -->
<!DOCTYPE svg PUBLIC "-//W3C//DTD SVG 1.1//EN" "http://www.w3.org/Graphics/SVG/1.1/DTD/svg11.dtd">
<svg version="1.1" xmlns="http://www.w3.org/2000/svg" xmlns:xlink="http://www.w3.org/1999/xlink" x="0px" y="0px"
	 viewBox="0 0 72 72" enable-background="new 0 0 72 72" xml:space="preserve">
<g id="Layer_1">
	<g>
		<path fill="#2C5C2D" d="M20.4,36.5c-0.4,6.2,8.8,11.8,20.4,12.5s21.4-3.8,21.7-10l0,0c0,0.4-8.3-20.2-19.9-20.8
			S20.4,36.9,20.4,36.5"/>
		<path fill="#2C5C2D" d="M23.7,44.2C18.5,50,16.2,43,16.2,43s-1.7-6.2-4.9-8.9c0,0-6-1.7-7.4-2.8s-0.6-11.3,8.8-10.5
			s6.2,12.7,6.2,12.7S19.5,42.4,23.7,44.2"/>
		<path fill="#2C5C2D" d="M60,45.2c0,0,2.3-2,2.6-4.2c0.3-2.2,2.6,3.6,4.9,2.6c2.3-1,0.6,0.9-0.1,1.2C64.2,46.3,60,45.2,60,45.2z"/>
		<path fill="#2C5C2D" d="M35.3,55.4c-5,2.8-11-0.3-11-0.3s-4.5-1.8,1.2-9.6c0,0,4.5,3,10,3.9C35.5,49.4,38.4,53.6,35.3,55.4z"/>
		<path fill="#2C5C2D" d="M50.1,55.4c5,2.8,11-0.3,11-0.3s4.5-1.8-1.2-9.6c0,0-4.5,3-10,3.9C49.9,49.4,47,53.6,50.1,55.4z"/>
	</g>
</g>
</svg>
