<?xml version="1.0" encoding="utf-8"?>
<!-- Generator: Adobe Illustrator 17.1.0, SVG Export Plug-In . SVG Version: 6.00 Build 0)  -->
<!DOCTYPE svg PUBLIC "-//W3C//DTD SVG 1.1//EN" "http://www.w3.org/Graphics/SVG/1.1/DTD/svg11.dtd">
<svg version="1.1" id="Layer_1" xmlns="http://www.w3.org/2000/svg" xmlns:xlink="http://www.w3.org/1999/xlink" x="0px" y="0px"
	 viewBox="252 162 288 288" enable-background="new 252 162 288 288" xml:space="preserve">
<path fill="#0683d9" d="M487.1,285c-0.6-11.8-36.7-34.5-31.2-15c5.8,20.6,26.4,23.9,26.4,23.9c4.3,24.3-10.8,28.4-14.6,28.8
	c-4.3,0.4-3.6-1.2-3.6-1.2c-7.5-39.1-32.3-67.3-70.7-81.8c-44.6-16.9-86.2-13-103.1,31.6c-6.7,17.6-6.2,44.7-1.9,61.6
	c0,0,4.2,17,46.8,11.7c0,0,2.4-0.8,0.2,1.3c-12.7,12.2-27.8,10.4-27.8,10.4s-1.7,0.4-0.8,1.6c0.5,0.6,21,12.9,71.3,13.8
	c0,0,5.8,0.5,14.9-0.2c0,0,8.3,16.4,13.3,17.1c4.9,0.8,5.5-19.8,5.5-19.8c31.6-6.8,71.9-9.2,79.6-74.7c0,0,21.3-3.6,27.1-24.2
	C523.8,250.4,487.7,273.2,487.1,285z M348.2,344.6c-2.2,0-3.9-1.7-3.9-3.9s1.7-3.9,3.9-3.9s3.9,1.7,3.9,3.9S350.4,344.6,348.2,344.6
	z"/>
</svg>
